<svg width="32" height="32" viewBox="0 0 32 32" fill="none" xmlns="http://www.w3.org/2000/svg">
<g clip-path="url(#clip0_1_2)">
<path d="M30 16H26V12.8313L29.4144 9.41687C30.1956 8.63562 30.1956 7.37 29.4144 6.58875C28.6331 5.8075 27.3675 5.8075 26.5863 6.58875L23.175 10H8.83125L5.41437 6.5875C4.63312 5.80625 3.3675 5.80625 2.58625 6.5875C1.805 7.36875 1.805 8.63437 2.58625 9.41562L6 12.8313V16H2C0.894375 16 0 16.8937 0 18C0 19.1063 0.894375 20 2 20H6V22C6 22.9444 6.193 23.8375 6.49344 24.6787L2.58594 28.5863C1.80469 29.3675 1.80469 30.6331 2.58594 31.4144C2.97688 31.8063 3.48813 32 4 32C4.51187 32 5.02375 31.8047 5.41375 31.4141L8.79688 28.0309C10.2 29.2437 12 30 14 30H15.0063V14.9937C15.0063 14.45 15.45 14 16 14C16.55 14 17 14.45 17 14.9937V30H18C19.9975 30 21.8012 29.2419 23.2031 28.0312L26.5863 31.4144C26.975 31.8063 27.4875 32 28 32C28.5125 32 29.0237 31.8047 29.4137 31.4141C30.195 30.6328 30.195 29.3672 29.4137 28.5859L25.5063 24.6784C25.8063 23.8375 26 22.9438 26 22V20H30C31.1056 20 32 19.1044 32 18C32 16.8956 31.1063 16 30 16ZM22 6C22 2.68625 19.3138 0 16 0C12.6862 0 10 2.68625 10 6V8H22V6Z" fill="#FFA500"/>
</g>
<defs>
<clipPath id="clip0_1_2">
<rect width="32" height="32" fill="white"/>
</clipPath>
</defs>
</svg>
