<svg width="32" height="32" viewBox="0 0 32 32" fill="none" xmlns="http://www.w3.org/2000/svg">
<path fill-rule="evenodd" clip-rule="evenodd" d="M12.9375 16.2461L12.9375 16.4922L12.9375 18.4062C12.9375 18.7687 13.2313 19.0625 13.5938 19.0625H18.4062C18.7687 19.0625 19.0625 18.7687 19.0625 18.4062V16.2461L19.0625 13.5937C19.0625 13.2313 18.7687 12.9375 18.4063 12.9375L13.5938 12.9375C13.2313 12.9375 12.9375 13.2313 12.9375 13.5937L12.9375 16.2461ZM19.9375 16.4922V18.4062C19.9375 19.2519 19.2519 19.9375 18.4062 19.9375H13.5938C12.7481 19.9375 12.0625 19.2519 12.0625 18.4062V16.4922V16.2461V13.5937C12.0625 12.7481 12.7481 12.0625 13.5938 12.0625H18.4063C19.2519 12.0625 19.9375 12.7481 19.9375 13.5937L19.9375 16.2461V16.4922Z" fill="#FFA500"/>
<path fill-rule="evenodd" clip-rule="evenodd" d="M10.5556 16.4375V16.875V20.2778C10.5556 20.9221 11.0779 21.4444 11.7222 21.4444H20.2778C20.9221 21.4444 21.4444 20.9221 21.4444 20.2778L21.4444 16.875L21.4444 16.4375L21.4444 11.7222C21.4444 11.0779 20.9221 10.5556 20.2778 10.5556L11.7222 10.5556C11.0779 10.5556 10.5556 11.0779 10.5556 11.7222L10.5556 16.4375ZM23 16.4375V16.875V20.2778C23 21.7812 21.7812 23 20.2778 23H11.7222C10.2188 23 9 21.7812 9 20.2778V16.875V16.4375V11.7222C9 10.2188 10.2188 9 11.7222 9L20.2778 9C21.7812 9 23 10.2188 23 11.7222V16.4375Z" fill="#FFA500"/>
<path fill-rule="evenodd" clip-rule="evenodd" d="M10.0672 10.9953L10.9953 10.0672L13.4015 12.4735L12.4735 13.4015L10.0672 10.9953Z" fill="#FFA500"/>
<path fill-rule="evenodd" clip-rule="evenodd" d="M21.0047 10.0672L21.9328 10.9953L19.5265 13.4015L18.5985 12.4735L21.0047 10.0672Z" fill="#FFA500"/>
<path fill-rule="evenodd" clip-rule="evenodd" d="M21.9328 21.0047L21.0047 21.9328L18.5985 19.5265L19.5265 18.5985L21.9328 21.0047Z" fill="#FFA500"/>
<path fill-rule="evenodd" clip-rule="evenodd" d="M11.214 21.9328L10.286 21.0047L12.6922 18.5985L13.6203 19.5265L11.214 21.9328Z" fill="#FFA500"/>
<path d="M13.1562 19.5136L10.75 21.4823L11.4062 22.3573L21.25 22.3573L22.125 21.4823C22.1979 17.9823 22.3 10.9386 22.125 10.7636C21.95 10.5886 20.3021 12.149 19.5 12.9511L19.7187 19.5136L13.1562 19.5136Z" fill="#FFA500"/>
<path fill-rule="evenodd" clip-rule="evenodd" d="M3.55556 6.22222L3.55556 17V25.7778C3.55556 27.2505 4.74945 28.4444 6.22223 28.4444H25.7778C27.2505 28.4444 28.4444 27.2505 28.4444 25.7778L28.4444 18L28.4444 17L28.4444 6.22223C28.4444 4.74951 27.2505 3.55556 25.7778 3.55556L6.22222 3.55556C4.74951 3.55556 3.55556 4.74951 3.55556 6.22222ZM32 17V18V25.7778C32 29.2142 29.2142 32 25.7778 32H6.22223C2.78578 32 0 29.2142 0 25.7778V18V17V6.22222C0 2.78578 2.78578 0 6.22222 0L25.7778 3.27073e-06C29.2142 3.57116e-06 32 2.78578 32 6.22223V17Z" fill="#FFA500"/>
</svg>
