<svg width="32" height="32" viewBox="0 0 32 32" fill="none" xmlns="http://www.w3.org/2000/svg">
<path fill-rule="evenodd" clip-rule="evenodd" d="M9 16.5625V17.125V21.5C9 22.3284 9.67157 23 10.5 23H21.5C22.3284 23 23 22.3284 23 21.5L23 17.125L23 16.5625L23 10.5C23 9.6716 22.3284 9 21.5 9L10.5 9C9.6716 9 9 9.6716 9 10.5L9 16.5625ZM25 16.5625V17.125V21.5C25 23.433 23.433 25 21.5 25H10.5C8.567 25 7 23.433 7 21.5V17.125V16.5625V10.5C7 8.567 8.567 7 10.5 7H21.5C23.433 7 25 8.567 25 10.5V16.5625Z" fill="#FFA500"/>
<path fill-rule="evenodd" clip-rule="evenodd" d="M3.55556 6.22222L3.55556 17V25.7778C3.55556 27.2505 4.74945 28.4444 6.22223 28.4444H25.7778C27.2505 28.4444 28.4444 27.2505 28.4444 25.7778L28.4444 18L28.4444 17L28.4444 6.22223C28.4444 4.74951 27.2505 3.55556 25.7778 3.55556L6.22222 3.55556C4.74951 3.55556 3.55556 4.74951 3.55556 6.22222ZM32 17V18V25.7778C32 29.2142 29.2142 32 25.7778 32H6.22223C2.78578 32 0 29.2142 0 25.7778V18V17V6.22222C0 2.78578 2.78578 0 6.22222 0L25.7778 3.27073e-06C29.2142 3.57116e-06 32 2.78578 32 6.22223V17Z" fill="#FFA500"/>
<path fill-rule="evenodd" clip-rule="evenodd" d="M2.43935 4.56066L4.56067 2.43934L10.0607 7.93934L7.93935 10.0607L2.43935 4.56066Z" fill="#FFA500"/>
<path fill-rule="evenodd" clip-rule="evenodd" d="M27.4393 2.43934L29.5607 4.56066L24.0607 10.0607L21.9393 7.93934L27.4393 2.43934Z" fill="#FFA500"/>
<path fill-rule="evenodd" clip-rule="evenodd" d="M29.5607 27.4393L27.4393 29.5607L21.9393 24.0607L24.0607 21.9393L29.5607 27.4393Z" fill="#FFA500"/>
<path fill-rule="evenodd" clip-rule="evenodd" d="M5.06067 29.5607L2.93935 27.4393L8.43935 21.9393L10.5607 24.0607L5.06067 29.5607Z" fill="#FFA500"/>
<path d="M9.49999 24.031L3.99999 28.531L5.5 30.531L28 30.531L30 28.531C30.1667 20.531 30.4 4.43102 30 4.03102C29.6 3.63103 25.8333 7.19769 24 9.03103L24.5 24.031L9.49999 24.031Z" fill="#FFA500"/>
</svg>
