<svg width="32" height="32" viewBox="0 0 32 32" fill="none" xmlns="http://www.w3.org/2000/svg">
<path d="M25.7764 6.22364C25.6283 6.07918 25.4292 5.99885 25.2223 6.00001L19.0203 6.01946C18.9054 6.01961 18.7919 6.04493 18.6877 6.09364C18.5836 6.14235 18.4914 6.21327 18.4176 6.30142L11.5741 14.5853L10.7672 13.7783C10.4744 13.4897 10.0798 13.3279 9.66876 13.3279C9.25768 13.3279 8.86311 13.4897 8.57029 13.7783L7.33573 15.0131C7.19054 15.1568 7.07528 15.328 6.99662 15.5165C6.91795 15.7051 6.87745 15.9074 6.87745 16.1118C6.87745 16.3161 6.91795 16.5184 6.99662 16.707C7.07528 16.8956 7.19054 17.0667 7.33573 17.2105L9.36741 19.2425L6.45112 22.1497C6.16199 22.4442 6 22.8404 6 23.2532C6 23.666 6.16199 24.0622 6.45112 24.3567L7.6468 25.5527C7.94246 25.8395 8.3382 26 8.75013 26C9.16206 26 9.5578 25.8395 9.85346 25.5527L12.76 22.6358L14.7917 24.6679C15.0845 24.9565 15.4791 25.1182 15.8902 25.1182C16.3013 25.1182 16.6958 24.9565 16.9887 24.6679L18.2232 23.4331C18.3684 23.2893 18.4837 23.1182 18.5623 22.9296C18.641 22.741 18.6815 22.5387 18.6815 22.3344C18.6815 22.1301 18.641 21.9277 18.5623 21.7392C18.4837 21.5506 18.3684 21.3795 18.2232 21.2357L17.4164 20.4287L25.6986 13.5838C25.7868 13.51 25.8577 13.4178 25.9064 13.3137C25.9551 13.2095 25.9804 13.096 25.9805 12.981L26 6.77784C26.0012 6.5709 25.9208 6.37182 25.7764 6.22364Z" fill="#FFA500"/>
<path fill-rule="evenodd" clip-rule="evenodd" d="M3.55556 6.22222L3.55556 17V25.7778C3.55556 27.2505 4.74945 28.4444 6.22223 28.4444H25.7778C27.2505 28.4444 28.4444 27.2505 28.4444 25.7778L28.4444 18L28.4444 17L28.4444 6.22223C28.4444 4.74951 27.2505 3.55556 25.7778 3.55556L6.22222 3.55556C4.74951 3.55556 3.55556 4.74951 3.55556 6.22222ZM32 17V18V25.7778C32 29.2142 29.2142 32 25.7778 32H6.22223C2.78578 32 0 29.2142 0 25.7778V18V17V6.22222C0 2.78578 2.78578 0 6.22222 0L25.7778 3.27073e-06C29.2142 3.57116e-06 32 2.78578 32 6.22223V17Z" fill="#FFA500"/>
</svg>
