<svg width="32" height="32" viewBox="0 0 32 32" fill="none" xmlns="http://www.w3.org/2000/svg">
<path fill-rule="evenodd" clip-rule="evenodd" d="M3.55556 6.22222L3.55556 17V25.7778C3.55556 27.2505 4.74945 28.4444 6.22223 28.4444H25.7778C27.2505 28.4444 28.4444 27.2505 28.4444 25.7778L28.4444 18L28.4444 17L28.4444 6.22223C28.4444 4.74951 27.2505 3.55556 25.7778 3.55556L6.22222 3.55556C4.74951 3.55556 3.55556 4.74951 3.55556 6.22222ZM32 17V18V25.7778C32 29.2142 29.2142 32 25.7778 32H6.22223C2.78578 32 0 29.2142 0 25.7778V18V17V6.22222C0 2.78578 2.78578 0 6.22222 0L25.7778 3.27073e-06C29.2142 3.57116e-06 32 2.78578 32 6.22223V17Z" fill="#FFA500"/>
<path d="M18.8409 15H16L19.2008 5H22.7992L26 15H23.1591L21.0379 7.75391H20.9621L18.8409 15ZM18.3106 11.0547H23.6515V13.0859H18.3106V11.0547Z" fill="#FFA500"/>
<rect x="6" y="5.625" width="8.75" height="8.75" rx="2" fill="#FFA500"/>
<path d="M18.8409 27H16L19.2008 17H22.7992L26 27H23.1591L21.0379 19.7539H20.9621L18.8409 27ZM18.3106 23.0547H23.6515V25.0859H18.3106V23.0547Z" fill="#FFA500"/>
<rect x="6" y="17.625" width="8.75" height="8.75" rx="2" fill="#FFA500"/>
</svg>
