<svg width="32" height="32" viewBox="0 0 32 32" fill="none" xmlns="http://www.w3.org/2000/svg">
<path d="M31.4997 7.43581L24.0195 2.41602C23.6909 2.19466 23.2765 2.19466 22.9407 2.41602L16.0035 7.07164L9.06626 2.41602C8.73761 2.19466 8.31609 2.19466 7.98745 2.41602L0.507253 7.43581C0.192899 7.64289 0 8.02848 0 8.43549V28.5004C0 28.9217 0.200044 29.3073 0.528686 29.5215C0.857329 29.7286 1.26456 29.7214 1.58606 29.5072L8.52328 24.8516L15.4605 29.5072C15.7963 29.7286 16.2035 29.7286 16.5393 29.5072L23.4837 24.8516L30.4209 29.5072C30.5852 29.6143 30.771 29.6786 30.9567 29.6786C31.1353 29.6786 31.3139 29.6286 31.4711 29.5286C31.7998 29.3215 31.9998 28.9288 31.9998 28.5075V8.44263C32.007 8.02848 31.8141 7.64289 31.4997 7.43581ZM7.35874 22.9022L2.28621 26.4296V9.17096L7.35874 5.64354V22.9022ZM9.64495 22.8736V14.1336C9.7164 14.1836 9.78784 14.2265 9.85214 14.2764L10.5166 13.3482C10.2451 13.1554 9.94502 12.9697 9.64495 12.8126V5.60784L14.8604 9.1067V16.8685C14.4674 16.7328 14.0816 16.5543 13.6887 16.3044L13.0814 17.2755C13.5672 17.5825 14.0531 17.811 14.5603 17.9752L14.8604 17.0612V26.3654L9.64495 22.8736ZM17.1466 26.3654V18.268C17.1609 18.268 17.1752 18.268 17.1823 18.268C17.3895 18.2537 17.5967 18.2323 17.7896 18.2037L17.611 17.0755C17.4609 17.097 17.3038 17.1184 17.1394 17.1255V9.1067L22.3549 5.60784V14.1194L21.9762 13.7766C21.7619 14.0122 21.5618 14.2479 21.3618 14.4692C21.2332 14.6192 21.1046 14.762 20.9831 14.9048L21.8405 15.6617C21.9691 15.5189 22.0977 15.3689 22.2263 15.219C22.2691 15.169 22.312 15.119 22.362 15.069V22.8665L17.1466 26.3654ZM29.7207 26.3654L24.6482 22.9093V13.1125C24.9054 12.9983 25.1769 12.9126 25.4412 12.8555L25.2126 11.7344C25.0197 11.7701 24.834 11.8272 24.6411 11.8844V5.6364L29.7136 9.09956V26.3654H29.7207Z" fill="#FFA500"/>
<path d="M4.77961 15.9616C4.91535 15.5403 5.02966 15.1762 5.28686 14.7977L4.3438 14.1551C3.99372 14.6692 3.83655 15.1476 3.68651 15.6189L3.67223 15.676L4.75818 16.0259L4.77961 15.9616Z" fill="#FFA500"/>
<path d="M6.91579 13.4696C7.07297 13.3839 6.81577 13.391 6.98723 13.341L6.63716 12.2557C6.40139 12.3342 6.17277 12.427 5.95129 12.5484C5.67981 12.6984 5.40117 12.8983 5.14397 13.1411L5.92272 13.9765C6.10847 13.798 6.72289 13.5695 6.91579 13.4696Z" fill="#FFA500"/>
<path d="M18.8827 16.6828L19.3828 17.711C19.8543 17.4825 20.2973 17.1826 20.7474 16.7828L19.9901 15.9259C19.6185 16.2544 19.2613 16.5043 18.8827 16.6828Z" fill="#FFA500"/>
<path d="M11.8454 14.662C11.774 14.5763 11.7025 14.4907 11.6311 14.405L10.7595 15.1476C10.8309 15.2333 10.9024 15.3118 10.9667 15.3975C11.2239 15.7045 11.4882 16.0187 11.7954 16.3115L12.5813 15.4832C12.3241 15.2333 12.0955 14.9548 11.8454 14.662Z" fill="#FFA500"/>
<path d="M26.8415 14.0836L27.5774 13.341L28.3133 14.0836L29.1278 13.2696L28.3847 12.5341L29.1278 11.7987L28.3133 10.9846L27.5774 11.7273L26.8415 10.9846L26.0271 11.7987L26.7701 12.5341L26.0271 13.2696L26.8415 14.0836Z" fill="#FFA500"/>
</svg>
