<svg width="32" height="32" viewBox="0 0 32 32" fill="none" xmlns="http://www.w3.org/2000/svg">
<path d="M0 25C0 23.8954 0.895431 23 2 23H30C31.1046 23 32 23.8954 32 25V30C32 31.1046 31.1046 32 30 32H2C0.895431 32 0 31.1046 0 30V25Z" fill="#FFA500"/>
<path fill-rule="evenodd" clip-rule="evenodd" d="M4 24.3334V25H28V24.3334C27.8551 24.2304 27.7216 24.1215 27.5999 24.0115C27.0498 23.5147 26.6138 22.8876 26.2646 22.289C25.5686 21.0958 24.9672 19.5673 24.4469 18.2208C24.4012 18.1026 24.3561 17.9857 24.3116 17.8701C23.8166 16.5866 23.388 15.4752 22.9541 14.6453C22.7957 14.3423 22.6654 14.1348 22.5674 14H9.43265C9.33457 14.1348 9.20427 14.3423 9.04589 14.6453C8.61205 15.4752 8.18343 16.5866 7.68842 17.8701C7.64387 17.9856 7.59878 18.1026 7.5531 18.2208C7.03284 19.5673 6.4314 21.0958 5.73537 22.289C5.38617 22.8876 4.95024 23.5147 4.40014 24.0115C4.27836 24.1215 4.1449 24.2304 4 24.3334ZM9 10C7.90548 10 7.11957 10.6063 6.65543 11.0942C6.18071 11.5932 5.80373 12.2131 5.50099 12.7922C4.9544 13.8379 4.44099 15.1715 3.97151 16.3911C3.92113 16.5219 3.87126 16.6515 3.8219 16.7792C3.27966 18.1827 2.78735 19.4042 2.28025 20.2735C2.04795 20.6717 1.86597 20.9002 1.74809 21.0157C0.762439 21.1396 0 21.9808 0 23V27C0 28.1046 0.89543 29 2 29H30C31.1046 29 32 28.1046 32 27V23C32 21.9808 31.2376 21.1396 30.2519 21.0157C30.134 20.9002 29.952 20.6717 29.7197 20.2735C29.2127 19.4042 28.7203 18.1827 28.1781 16.7792C28.1287 16.6515 28.0789 16.5219 28.0285 16.391C27.559 15.1715 27.0456 13.8379 26.499 12.7922C26.1963 12.2131 25.8193 11.5932 25.3446 11.0942C24.8804 10.6063 24.0945 10 23 10H9Z" fill="#FFA500"/>
</svg>
